<svg xmlns="http://www.w3.org/2000/svg" viewBox="0 0 235.87 235.87"><defs><style>.cls-1 {
		fill: #fff;
	}
</style></defs><g id="Layer_2" data-name="Layer 2"><g id="Layer_1-2" data-name="Layer 1"><path class="cls-1" d="M222.82,64A118.93,118.93,0,0,0,188,23.05a4.8,4.8,0,0,0-5.71,7.72,109.32,109.32,0,0,1,32,37.59,107.15,107.15,0,0,1,12,49.58A108.34,108.34,0,1,1,117.94,9.6a4.8,4.8,0,0,0,0-9.6A117.87,117.87,0,1,0,222.82,64Z"/><path class="cls-1" d="M87.76,63.18a4.79,4.79,0,0,0-2.43,4.17V172.69a4.8,4.8,0,0,0,9.6,0V75.79L166,118.1l-52.26,33.67a4.8,4.8,0,1,0,5.2,8.07L177.71,122a4.8,4.8,0,0,0-.14-8.16l-85-50.59a4.8,4.8,0,0,0-4.83,0Z"/></g></g></svg>